<svg xmlns="http://www.w3.org/2000/svg" viewBox="0 0 558.24 374.72"><defs><style>.cls-1{fill:#030c12;}.cls-2{fill:#04598c;}.cls-3{fill:#fff;}</style></defs><title>about</title><g id="Calque_2" data-name="Calque 2"><g id="Calque_1-2" data-name="Calque 1"><path id="e" class="cls-1" d="M405.44,272.34c-19.07.09-31.15,13-31.07,30.89.09,18.82,12.18,31.27,32.44,31.17,8.93,0,19-3.19,25.21-9.65l-9.34-9.13c-3.32,3.47-10.34,5.53-15.7,5.56-10.24.05-16.58-5.17-17.57-12.43l45.86-.22C437.42,284.34,425.09,272.24,405.44,272.34Zm-15.85,24.38c2.11-7.64,8.52-11.48,16.38-11.52,8.34,0,14.32,3.75,15.31,11.37Z"/><path id="h" class="cls-1" d="M533.89,274.22c-6.68,0-13.1,2.09-18.31,8.91l-.15-32.65-14.52,4.73.38,78.73,14.54-.07-.15-30c0-8.81,5.88-16.11,14.46-16.15,7.74,0,13.36,4.46,13.41,15.18l.15,30.86,14.54-.07-.15-31C558,285.42,550.56,274.14,533.89,274.22Z"/><path id="c" class="cls-1" d="M472.17,320.15c-9.06,0-16.71-5.88-16.76-17.08-.05-10.24,7.06-17.42,16.83-17.47a17.85,17.85,0,0,1,11.82,4.59l9.12-9.7c-6.46-6.28-12.91-8.63-21.24-8.59-17,.08-31.17,10.4-31.07,31.24s14.33,31,31.37,30.95a30.25,30.25,0,0,0,22.59-9.41L485,315.2C481.46,318.79,476.82,320.12,472.17,320.15Z"/><path id="t" class="cls-1" d="M361.77,321.49c-4.53,0-7.64-2.7-7.67-8.3L354,287.82l16.32-.08-.06-12.51-16.2.08-.12-24L339.41,256l.09,19.39-11,.05.07,12.51,11-.05.12,25.37c.07,14.65,8.44,21.88,21.19,21.34a32.4,32.4,0,0,0,12-2.56l-4.11-12.37A16.64,16.64,0,0,1,361.77,321.49Z"/><path id="a" class="cls-1" d="M97.82,270.7a32.6,32.6,0,1,0,20.23,58.22l0,6.88,12.64-.06L130.56,300h-.16A32.65,32.65,0,0,0,97.82,270.7Zm.25,52.55a20,20,0,1,1,19.86-20.05A20,20,0,0,1,98.07,323.25Z"/><path id="m" class="cls-1" d="M227.83,275.7c-7.63,0-14.4,2.45-19.61,10.82-3.37-8.09-10.41-10.91-17.44-10.88-5.6,0-12.38,2.21-15.45,8.18l-1.11-7.14-13.46.06.29,58.85,14.53-.07-.15-31.45c0-7.74,4.57-14.79,12.44-14.83s12.06,7,12.1,14.71l.15,31.45,14.54-.07-.16-31.45c0-7.74,4.82-14.56,12.68-14.6s11.11,6.5,11.15,14.25l.15,31.69,14.54-.07-.16-31.69C252.78,285.83,244.51,275.62,227.83,275.7Z"/><polygon id="l" class="cls-1" points="138.11 335.7 152.52 335.63 152.12 252.24 137.72 256.97 138.11 335.7"/><path id="a-2" data-name="a" class="cls-1" d="M291.66,269.76A32.6,32.6,0,1,0,311.9,328l0,6.88,12.64-.06L324.4,299h-.16A32.65,32.65,0,0,0,291.66,269.76Zm.26,52.55a20,20,0,1,1,19.85-20.05A20,20,0,0,1,291.92,322.31Z"/><path id="g" class="cls-1" d="M29.43,270c-7.77,0-15,2.3-20.29,6.36A22.83,22.83,0,0,0,0,295.33l.14,28a23,23,0,0,0,9.56,19,34.47,34.47,0,0,0,20.7,6.3,39.35,39.35,0,0,0,16.43-3.41l0,4.72c0,4.59-1.68,7.83-5.2,9.9-2.85,1.67-6.91,2.53-12.06,2.56-6,0-14.86-2.89-17.83-6.84l-.62-.81-8.53,8.36.61.64c6.75,7,16.75,11,27.46,11,14.78-.07,29.66-7.79,29.58-24.88L59.9,276l-.57-.22C48.21,271.49,40.39,270,29.43,270Zm17.34,63.69a46.67,46.67,0,0,1-16.72,2.95,19.06,19.06,0,0,1-11.59-3.46,11.52,11.52,0,0,1-4.77-9.4l-.14-28.26c0-8.28,8.08-13.27,15.94-13.31,6.94,0,11.63.69,17.05,2.64Z"/><circle class="cls-2" cx="278.33" cy="84.09" r="28.31" transform="translate(94.13 309.06) rotate(-67.5)"/><path class="cls-2" d="M349.38,0H211.66a45.41,45.41,0,0,0-45.41,45.42V183.13a45.41,45.41,0,0,0,45.41,45.41H349.38a45.41,45.41,0,0,0,45.41-45.41V45.42A45.41,45.41,0,0,0,349.38,0ZM325.52,84.09a47.27,47.27,0,0,1-37.75,46.24v22a22.65,22.65,0,1,1-18.88,0v-22a47.18,47.18,0,1,1,35.37-85.62L316,33l6.54,6.54c.07.06.14.1.21.17s.1.14.17.2l7,7L318.05,58.7A46.85,46.85,0,0,1,325.52,84.09Z"/><path class="cls-2" d="M278.33,165.38a7.55,7.55,0,1,0,7.55,7.55A7.56,7.56,0,0,0,278.33,165.38Z"/><path class="cls-3" d="M322.93,39.87c-.07-.06-.11-.14-.17-.2s-.14-.11-.21-.17L316,33,304.26,44.71a47.17,47.17,0,1,0-35.37,85.62v22a22.65,22.65,0,1,0,18.88,0v-22A47.11,47.11,0,0,0,318.05,58.7L329.9,46.85Zm-44.6,140.61a7.55,7.55,0,1,1,7.55-7.55A7.56,7.56,0,0,1,278.33,180.48Zm0-68.07a28.32,28.32,0,1,1,28.31-28.32A28.34,28.34,0,0,1,278.33,112.41Z"/></g></g></svg>