<svg xmlns="http://www.w3.org/2000/svg" viewBox="0 0 2595.72 558.85"><defs><style>.cls-1{fill:#030c12;}.cls-2{fill:#04598c;}.cls-3{fill:#fff;}</style></defs><title>logo_1</title><g id="Calque_2" data-name="Calque 2"><g id="Full_Lockup" data-name="Full Lockup"><g id="Standard_Color" data-name="Standard Color"><path id="e" class="cls-1" d="M2050.24,135.7c-68,.33-111.2,46.48-110.89,110.26.33,67.19,43.49,111.64,115.79,111.29,31.89-.15,68-11.39,90-34.46l-33.33-32.58c-11.85,12.39-36.91,19.73-56,19.83-36.57.17-59.2-18.43-62.73-44.35l163.73-.79C2164.42,178.53,2120.41,135.36,2050.24,135.7Zm-56.57,87c7.53-27.25,30.42-41,58.49-41.1,29.77-.15,51.1,13.35,54.63,40.55Z"/><path id="h" class="cls-1" d="M2508.79,142.42c-23.82.11-46.75,7.45-65.34,31.78l-.56-116.52-51.81,16.87,1.36,281.07,51.89-.25-.52-107.17c-.15-31.47,21-57.51,51.6-57.66,27.64-.13,47.71,15.93,47.89,54.2l.53,110.15,51.89-.25-.53-110.57C2594.89,182.4,2568.32,142.13,2508.79,142.42Z"/><path id="c" class="cls-1" d="M2288.47,306.36c-32.32.16-59.64-21-59.84-60.94-.17-36.57,25.22-62.21,60.09-62.38a63.65,63.65,0,0,1,42.18,16.38l32.58-34.61c-23.07-22.42-46.08-30.82-75.84-30.68-60.81.3-111.25,37.12-110.89,111.54s51.15,110.75,112,110.45c31-.15,56.51-9.63,80.64-33.56l-35-33.85C2321.62,301.53,2305.06,306.28,2288.47,306.36Z"/><path id="t" class="cls-1" d="M1894.35,311.17c-16.15.08-27.26-9.65-27.36-29.64l-.44-90.58,58.27-.28L1924.6,146l-57.83.28-.42-85.83-51.8,16.87.33,69.21-39.12.19.21,44.65,39.13-.19.44,90.58c.25,52.31,30.14,78.11,75.64,76.19a116.14,116.14,0,0,0,42.91-9.14l-14.67-44.16C1911.78,308.53,1902.44,311.13,1894.35,311.17Z"/><path id="a" class="cls-1" d="M952.11,129.86a116.36,116.36,0,1,0,72.23,207.83l.12,24.55,45.13-.22-.61-127.7h-.58A116.49,116.49,0,0,0,952.11,129.86Zm.9,187.58a71.23,71.23,0,1,1,70.89-71.57A71.31,71.31,0,0,1,953,317.44Z"/><path id="m" class="cls-1" d="M1416.22,147.7c-27.22.13-51.42,8.76-70,38.62-12-28.86-37.18-38.95-62.27-38.82-20,.09-44.19,7.86-55.15,29.18l-4-25.5-48,.23,1,210.08,51.89-.25L1229.16,249c-.13-27.65,16.33-52.82,44.4-52.95,28.49-.14,43.07,24.87,43.21,52.52l.54,112.27,51.89-.25-.55-112.27c-.13-27.65,17.19-52,45.25-52.11s39.67,23.21,39.8,50.85l.55,113.12,51.88-.25-.55-113.13C1505.28,183.85,1475.76,147.41,1416.22,147.7Z"/><polygon id="l" class="cls-1" points="1095.92 361.89 1147.38 361.64 1145.94 63.95 1094.57 80.82 1095.92 361.89"/><path id="a-2" data-name="a" class="cls-1" d="M1644.09,126.51a116.36,116.36,0,1,0,72.23,207.83l.12,24.55,45.14-.22L1761,231h-.57A116.5,116.5,0,0,0,1644.09,126.51ZM1645,314.1a71.23,71.23,0,1,1,70.88-71.58A71.31,71.31,0,0,1,1645,314.1Z"/><path id="g" class="cls-1" d="M708,127.46c-27.76.13-53.49,8.2-72.46,22.71-21.47,16.43-32.75,39.81-32.62,67.61l.49,99.85c.13,27.82,11.93,51.26,34.13,67.8,19.66,14.65,45.91,22.65,73.91,22.51,21.68-.1,40.92-4.09,58.65-12.18l.08,16.84c.08,16.42-6,28-18.56,35.34-10.2,6-24.69,9.05-43.08,9.14-21.3.1-53-10.31-63.65-24.39l-2.2-2.92-30.45,29.87,2.19,2.29c24.08,25.12,59.79,39.42,98,39.24,52.78-.26,105.9-27.81,105.6-88.8l-1.27-263.53-2-.79C775,132.66,747.09,127.27,708,127.46Zm61.9,227.36a168,168,0,0,1-59.7,10.55c-16.05.07-30.75-4.32-41.4-12.39-11.06-8.38-16.94-20-17-33.54l-.49-100.87c-.14-29.57,28.82-47.37,56.9-47.51,24.77-.12,41.52,2.45,60.85,9.42Z"/><circle class="cls-2" cx="274.07" cy="205.63" r="69.24" transform="translate(-20.79 380.15) rotate(-67.5)"/><path class="cls-2" d="M447.8,0H111.05A111.05,111.05,0,0,0,0,111.05V447.8A111.05,111.05,0,0,0,111.05,558.85H447.8a111.05,111.05,0,0,0,111.05-111V111.05A111.05,111.05,0,0,0,447.8,0ZM389.47,205.63A115.58,115.58,0,0,1,297.15,318.7v53.87a55.39,55.39,0,1,1-46.16,0V318.7a115.38,115.38,0,1,1,86.5-209.37L366.22,80.6l16,16c.16.15.35.25.51.41s.26.34.41.51l17.06,17-29,29A114.52,114.52,0,0,1,389.47,205.63Z"/><path class="cls-2" d="M274.07,404.4a18.47,18.47,0,1,0,18.47,18.46A18.48,18.48,0,0,0,274.07,404.4Z"/><path class="cls-3" d="M383.12,97.51c-.15-.17-.25-.35-.41-.51s-.35-.26-.51-.41l-16-16-28.73,28.73A115.36,115.36,0,1,0,251,318.7v53.87a55.39,55.39,0,1,0,46.16,0V318.7a115.18,115.18,0,0,0,74-175.15l29-29Zm-109,343.82a18.47,18.47,0,1,1,18.47-18.47A18.48,18.48,0,0,1,274.07,441.33Zm0-166.46a69.24,69.24,0,1,1,69.24-69.24A69.32,69.32,0,0,1,274.07,274.87Z"/></g></g></g></svg>